<svg width="394" height="205" viewBox="0 0 394 205" fill="none" xmlns="http://www.w3.org/2000/svg">
<g filter="url(#filter0_i_102_417)">
<path d="M220.436 106.536C222.473 108.572 224.51 111.882 224.51 115.191C224.51 115.191 225.273 118.246 224 123.083C223.746 125.628 219.164 129.192 219.164 129.192C219.164 129.192 233.426 147.857 247.675 152.867C255.058 157.958 259.659 160.598 270.332 166.105C281.005 171.612 305.424 181.087 318.195 181.994C351.768 180.786 342.98 177.735 376.089 167.37C391.729 153.999 402.721 165.66 376.089 152.867C365.664 152.837 367.491 154.916 362.907 147.019C350.543 146.984 359.371 138.994 349.907 142.019C342.182 130.297 344.57 137.841 334.907 133.019C325.244 128.197 325.407 123.083 325.407 123.083C325.407 123.083 321.954 120.634 328.907 115.191C335.86 109.748 331.417 107.935 339.407 111.519C347.984 106.528 342.639 102.218 349.907 104.019C356.463 100.477 358.846 95.0017 364.907 95.019C371.234 90.0246 375.562 91.7105 380.407 93.019C385.094 89.2027 389.422 90.111 393.865 86.6859C382.003 80.548 336.318 65.7387 312.5 74.3395C282.044 82.2855 226.255 106.552 220.436 106.536Z" fill="url(#paint0_linear_102_417)"/>
</g>
<path d="M260.913 103.226C236.717 109.622 222.68 111.372 224.731 112.113C222.717 116.716 230.085 111.879 258.957 105.676C269.37 102.657 275.819 102.814 290.529 97.1128C302.717 92.3892 324.897 89.4605 330.392 88.4707C322.541 88.0626 310.161 89.0691 298.284 92.9241C293.541 94.4633 272.116 100.265 260.913 103.226Z" fill="#FB8700"/>
<path d="M263.322 115.088C243.267 120.569 223.846 119.958 225.21 118.591C222.728 115.446 230.441 119.961 255.389 115.805C264.659 115.015 275.523 108.606 288.209 106.63C298.136 105.084 316.797 101.065 316.842 101.262C316.887 101.46 293.737 106.152 281.751 109.061C274.276 110.737 272.895 112.472 263.322 115.088Z" fill="#FB8700"/>
<path d="M243.867 128.92C232.666 126.884 223.202 123.587 224.232 122.643C224.232 119.519 226.707 123.108 240.049 126.577C244.807 128.617 251.559 127.281 258.308 129.182C263.588 130.67 273.807 133.122 273.777 133.333C273.747 133.543 261.147 131.155 254.497 130.396C250.386 129.785 249.178 129.886 243.867 128.92Z" fill="#FB8700"/>
<path d="M246.644 110.86C234.151 112.089 223.746 114.682 224.668 115.337C224.255 118.246 227.656 116.103 242.53 112.604C248.222 111.265 254.921 112.197 262.45 110.316C268.341 108.844 279.837 104.172 279.813 104.014C279.788 103.856 265.979 108.071 258.606 109.077C254.041 109.806 252.607 110.273 246.644 110.86Z" fill="#FB8700"/>
<path d="M258.876 150.067C233.165 139.375 222.65 122.748 222.742 126.676C224.764 129.956 229.346 135.047 250.73 150.067C262.44 153.122 272.955 162.911 287.388 169.16C298.681 174.049 326.55 174.583 326.625 174.429C326.7 174.276 296.318 170.865 282.806 164.068C274.362 159.947 269.635 155.747 258.876 150.067Z" fill="#FB8700"/>
<path d="M250.018 120.589C235.912 119.154 223.623 118.974 224.696 119.607C225.719 123.133 227.838 120.658 245.08 121.01C251.678 121.145 258.894 122.976 267.645 123.081C274.493 123.163 288.251 122.123 288.258 122.013C288.266 121.903 272.047 122.221 263.659 121.56C258.443 121.222 256.752 121.275 250.018 120.589Z" fill="#FB8700"/>
<path d="M245.621 135.564C245.621 135.564 224.764 123.337 223.702 124.308C225.838 127.074 236.609 133.313 250.73 139.884C258.958 144.287 282.042 152.103 282.042 152.103C282.042 152.103 307.762 159.876 315.39 157.958C301.635 157.459 290.618 151.778 278.732 148.539C271.326 146.613 245.621 135.564 245.621 135.564Z" fill="#FB8700"/>
<path d="M235.965 106.281C229.092 107.554 224.255 112.391 223.527 110.506C222.799 108.621 244.348 101.948 257.604 98.1349C268.729 92.9493 290.68 84.211 300.353 81.6247C307.99 78.5699 325.81 73.9162 332.742 73.9162C339.674 73.9162 317.664 77.8061 317.664 77.8061C317.664 77.8061 280.242 90.0255 273.162 93.6468C264.387 98.1345 242.584 104.245 235.965 106.281Z" fill="#FB8700"/>
<path d="M279.422 169.883C289.859 173.956 315.566 180.386 313.863 181.124C313.863 181.124 281.379 174.134 272.294 167.847C263.367 163.957 247.229 153.988 240.727 149.263C234.225 144.538 224.18 136.026 221.283 130.161C218.387 124.297 226.544 135.257 230.545 138.062C238.691 146.463 250.815 153.965 256.256 157.155C263.639 161.483 269.748 164.537 279.422 169.883Z" fill="#FB8700"/>
<g filter="url(#filter1_i_102_417)">
<g filter="url(#filter2_i_102_417)">
<path d="M23.4187 106.088C13.6778 114.061 0.704896 116.51 0.845091 129.097C0.996393 142.682 16.0739 144.174 27.6821 151.232C39.9231 158.674 47.9432 160.839 61.5409 165.348C82.287 172.228 94.4702 176.937 116.327 176.793C135.65 176.666 146.916 174.37 164.878 167.245C177.59 162.203 184.318 158.127 195.489 150.239C201.718 145.841 201.968 138.411 208.439 134.379C218.365 132.584 221.419 131.562 226.503 126.21C228.277 120.098 228.324 114.242 225.74 110.234C220.617 102.288 212.311 102.98 201.08 95.3456C189.699 87.6094 183.666 82.2596 170.859 77.2226C158.208 71.8203 139.876 69.5529 129.185 69.8213C114.625 70.1868 106.277 72.3967 92.211 75.7787C78.3451 78.7871 70.2085 79.7611 57.1541 85.3196C42.9199 91.3804 35.3903 96.2883 23.4187 106.088Z" fill="url(#paint1_linear_102_417)"/>
</g>
<path d="M118.619 99.9454C120.788 99.3174 123.05 97.8501 122.872 95.576C122.693 93.3019 120.308 93.198 118.034 92.5028L118.619 99.9454Z" fill="#D96F28"/>
<path d="M119.11 106.207C122.019 105.573 125.08 104.189 124.922 102.173C124.764 100.157 121.593 100.148 118.592 99.6089L119.11 106.207Z" fill="#D96F28"/>
<path d="M112.569 154.99C114.814 154.738 117.292 153.675 117.501 151.404C117.709 149.132 115.376 148.626 113.253 147.556L112.569 154.99Z" fill="#D97329"/>
<path d="M111.994 161.245C114.968 161.112 118.22 160.267 118.405 158.253C118.59 156.239 115.467 155.693 112.6 154.654L111.994 161.245Z" fill="#D97329"/>
<path d="M138.485 133.789C140.809 133.544 143.371 132.489 143.58 130.217C143.789 127.946 141.371 127.432 139.169 126.355L138.485 133.789Z" fill="#EC9718"/>
<path d="M137.91 140.044C140.271 139.854 142.864 138.948 143.05 136.934C143.235 134.92 140.769 134.435 138.516 133.453L137.91 140.044Z" fill="#EC9718"/>
<path d="M155.811 148.642C158.124 148.314 160.647 147.167 160.773 144.889C160.9 142.611 158.465 142.185 156.225 141.189L155.811 148.642Z" fill="#EC9718"/>
<path d="M155.462 154.914C157.814 154.64 160.374 153.64 160.486 151.621C160.598 149.602 158.116 149.206 155.829 148.305L155.462 154.914Z" fill="#EC9718"/>
<path d="M161.525 120.6C163.826 120.194 166.309 118.962 166.358 116.681C166.408 114.401 163.96 114.057 161.688 113.136L161.525 120.6Z" fill="#D97429"/>
<path d="M161.389 126.88C163.73 126.526 166.254 125.441 166.298 123.419C166.342 121.397 163.849 121.085 161.533 120.262L161.389 126.88Z" fill="#D97429"/>
<path d="M143.005 93.3975C145.26 92.785 147.621 91.3337 147.464 89.058C147.307 86.7823 144.838 86.6613 142.492 85.9497L143.005 93.3975Z" fill="#EC9718"/>
<path d="M161.334 113.254C163.589 112.641 165.95 111.19 165.793 108.914C165.636 106.639 163.167 106.518 160.821 105.806L161.334 113.254Z" fill="#DA822B"/>
<path d="M102.279 124.267C105.188 123.633 108.249 122.249 108.091 120.233C107.933 118.217 104.762 118.207 101.761 117.668L102.279 124.267Z" fill="#D97129"/>
<path d="M76.7501 109.006C79.6589 108.372 79.7395 107.197 79.5159 105.176C79.2495 102.767 77.2503 103.151 74.459 103.406C71.6677 103.66 72.1679 106.715 72.1679 106.715C72.1679 106.715 72.2261 107.617 72.9316 108.243C73.6172 108.851 73.8414 109.64 76.7501 109.006Z" fill="#D97129"/>
<path fill-rule="evenodd" clip-rule="evenodd" d="M70.0361 153.652C73.4796 151.982 76.7032 146.732 77.9754 140.104C79.6267 131.503 77.366 123.84 72.926 122.987C72.5792 122.921 72.2293 122.898 71.8782 122.916C75.658 124.694 77.3779 132.362 75.7311 140.94C74.6901 146.362 72.5345 150.948 70.0361 153.652Z" fill="#DA7528"/>
<path fill-rule="evenodd" clip-rule="evenodd" d="M86.1364 156.712C90.4226 154.178 93.9099 147.174 94.6376 138.687C95.5821 127.671 91.5206 118.328 85.566 117.817C85.1009 117.777 84.638 117.792 84.1793 117.86C89.3985 119.617 92.75 129.034 91.808 140.02C91.2126 146.965 89.0336 152.999 86.1364 156.712Z" fill="#D6712D"/>
</g>
<g filter="url(#filter3_i_102_417)">
<path d="M124.161 50.068C120.078 60.8389 109.398 71.8771 109.398 71.8771L112.453 71.3679L115.508 70.8773C115.508 70.8773 117.29 70.698 120.599 70.3497C125.436 69.8405 129 69.8405 133.837 69.8405L133.837 69.8405C138.405 70.2684 143.397 70.5494 145.676 70.8773C148.714 71.3145 151.241 71.8054 154.019 72.3835C157.51 73.266 160.582 73.812 164.102 74.8793C167.045 76.0588 169.199 76.751 172.121 77.9701C174.473 78.951 175.823 79.4448 178.126 80.5161C181.441 82.3144 182.63 82.8746 185.769 84.8601C188.624 86.6664 190.418 87.9982 193.151 89.9514C195.73 91.7939 197.359 93.0487 200.025 94.7882C202.309 96.2794 203.142 97.1456 205.625 98.3522C207.597 99.3102 208.171 99.625 210.207 100.389C212.032 93.6167 233.527 80.6511 224.95 70.2275C217.933 61.6991 210.523 67.9989 201.861 62.1393C191.118 54.8724 197.971 57.8584 192.829 53.0662C179.968 49.9923 186.825 50.5201 181.458 45.0329C172.979 42.4498 173.634 43.3209 173.873 37.85C165.041 35.8657 171.13 30.6501 168.332 30.528C164.577 28.9937 166.451 21.0819 162.751 24.1178C159.594 20.5541 163.129 15.4555 158.168 18.208C156.771 15.1779 161.284 11.0356 156.706 10.8357C153.786 7.69066 156.845 7.64431 153.534 1.78998C147.849 3.59728 135.094 15.6018 131.978 22.7742C128.862 29.9466 127.687 40.7668 124.161 50.068Z" fill="#FFE91F"/>
</g>
<path d="M136.535 51.0633C132.321 60.0788 133.375 69.7372 134.525 69.2802C137.642 71.3964 133.194 66.4895 136.127 54.8568C136.563 50.4165 141.831 46.0723 143.203 40.1353C144.277 35.4898 147.261 26.9318 147.089 26.8786C146.916 26.8256 143.469 37.4887 141.268 42.9339C140.015 46.3518 138.547 46.7597 136.535 51.0633Z" fill="#D4922C"/>
<path d="M143.591 54.4637C140.594 62.3864 142.744 70.6765 143.797 70.2417C147.047 71.9557 142.188 67.8827 143.645 57.7489C143.542 53.905 148.103 49.9725 148.727 44.805C149.214 40.7614 151.082 33.2769 150.909 33.2372C150.737 33.1975 148.671 42.5136 147.193 47.2865C146.388 50.2779 145.022 50.6817 143.591 54.4637Z" fill="#D4922C"/>
<path d="M187.392 74.2769C186.966 78.8156 181.612 81.7809 180.811 81.2321C177.099 80.8986 183.26 80.7247 186.012 75.7215C187.664 74.0447 185.022 70.7551 186.536 68.2441C187.721 66.2793 189.019 62.3171 189.195 62.3577C189.371 62.3982 187.515 67.2425 186.955 69.8665C186.49 71.4697 187.595 72.1103 187.392 74.2769Z" fill="#D4922C"/>
<path d="M194.984 79.7343C194.924 83.9429 191.068 87.2349 190.434 86.8171C185.612 85.4732 191.78 85.9938 193.563 81.1106C194.709 79.3961 193.001 76.7571 193.996 74.2921C194.775 72.3633 195.524 68.5902 195.659 68.6086C195.794 68.627 194.675 73.2688 194.404 75.7355C194.146 77.2557 195.013 77.7253 194.984 79.7343Z" fill="#D4922C"/>
<path d="M203.03 85.7674C203.371 89.4331 199.225 92.3588 198.449 92.0047C192.729 90.9083 199.929 91.2672 201.518 86.9876C202.679 85.4771 200.441 83.2052 201.353 81.0435C202.067 79.3519 202.567 76.0549 202.725 76.0689C202.883 76.0828 202.04 80.142 201.967 82.2941C201.817 83.6218 202.868 84.0175 203.03 85.7674Z" fill="#D4922C"/>
<path d="M154.217 59.1575C154.007 66.2336 152.167 72.1641 151.373 71.5109C147.79 71.8793 150.289 69.7751 152.715 61.4331C153.643 58.2403 152.055 54.3813 153.4 50.1632C154.453 46.8625 158.432 40.4946 158.603 40.5151C158.774 40.5355 155.489 48.2411 155.066 52.4064C154.689 54.9805 154.317 55.7797 154.217 59.1575Z" fill="#D4922C"/>
<path d="M160.741 61.4217C158.07 67.6537 154.84 72.7698 158.343 73.1592C161.469 74.7199 160.035 72.0232 161.193 63.9223C161.636 60.8217 164.649 58.0126 165.126 53.8752C165.499 50.6377 164.437 43.7173 164.272 43.6758C164.108 43.6344 163.994 51.479 162.696 55.2513C161.998 57.6222 162.015 58.4468 160.741 61.4217Z" fill="#D4922C"/>
<path d="M169.683 66.7578C168.846 71.9649 166.612 76.0953 165.939 75.5003C161.191 73.8257 165.099 74.0635 168.092 68.2309C169.238 65.9985 168.125 62.9195 169.748 59.9868C171.018 57.6921 175.264 53.5387 175.42 53.578C175.575 53.6171 171.847 58.8579 171.079 61.881C170.498 63.7331 170.082 64.2722 169.683 66.7578Z" fill="#D4922C"/>
<path d="M176.289 69.3762C175.335 74.2322 175.334 78.3296 172.129 77.5639C169.758 77.5394 172.51 76.3822 175.05 70.8265C176.022 68.7001 175.435 65.9196 176.797 63.1196C177.862 60.9286 181.184 56.8527 181.293 56.8802C181.402 56.9075 178.376 61.9582 177.62 64.7935C177.078 66.5367 176.744 67.0581 176.289 69.3762Z" fill="#D4922C"/>
<path d="M130.625 49.9446C126.157 58.163 128.93 69.2326 127.654 69.5234C126.67 69.7479 125.553 57.5425 128.691 51.2073C130.51 46.1086 131.582 43.6076 134.139 37.7767C137.219 33.4562 136.829 16.6155 137.406 20.951C137.982 25.2865 137.417 27.2979 136.948 31.4416C135.107 38.5181 132.609 45.1768 130.625 49.9446Z" fill="#D4922C"/>
<path d="M101.284 182.105C98.8431 179.468 99.2394 174.977 99.2394 174.977C99.2394 174.977 108.629 175.868 114.318 175.868C120.207 175.868 123.028 175.944 128.886 175.423C134.767 174.899 138.221 174.189 143.965 172.973C149.401 171.821 157.766 169.631 157.766 169.631C157.766 169.631 155.026 173.579 152.655 175.646C152.655 175.646 142.24 180.728 139.183 182.105C136.126 183.483 128.181 186.681 124.797 187.228C119.174 187.674 114.063 187.451 108.44 186.56C104.971 185.266 103.636 184.647 101.284 182.105Z" fill="#EDF621"/>
<path d="M115.763 180.832C105.834 180.832 98.6905 179.897 99.7247 178.834C99.7247 177.566 101.918 179.587 113.217 179.56C117.139 180.251 123.587 177.452 129.283 177.566C133.739 177.656 142.524 176.788 142.469 176.979C142.414 177.17 131.624 177.972 125.863 178.834C122.319 179.243 120.18 180.832 115.763 180.832Z" fill="#FB8700"/>
<path d="M114.471 182.715C108.334 182.469 104.052 183.633 102.27 182.715C102.672 184.261 104.365 184.284 112.141 183.405C115.117 183.069 117.911 183.913 121.872 183.405C124.972 183.008 131.567 181.4 131.592 181.307C132.309 181.307 123.268 182.853 119.581 182.869C117.274 182.94 117.4 182.833 114.471 182.715Z" fill="#FB8700"/>
<g filter="url(#filter4_i_102_417)">
<path d="M144.548 183.081C140.333 180.404 131.378 174.422 131.378 174.422C131.378 174.422 144.692 173.114 152.668 170.655C158.62 168.82 167.647 165.371 167.647 165.371C167.647 165.371 171.353 167.843 173.869 169.177C180.289 172.58 183.937 172.366 189.905 176.162C195.874 179.958 200.609 182.688 206.294 187.237C208.701 191.242 214.659 196.771 212.145 200.709C203.144 202.911 195.736 203.415 188.918 201.855C175.741 198.84 173.247 197.909 166.801 195.503L166.493 195.388C159.816 192.896 150.564 186.902 144.548 183.081Z" fill="url(#paint2_linear_102_417)"/>
</g>
<path d="M172.892 174.726C167.227 169.855 162.544 168.699 159.83 169.893C157.116 171.087 159.23 168.838 167.354 172.984C170.464 174.571 181.307 182.882 185.494 184.891C188.77 186.463 200.63 193.005 200.727 192.864C200.825 192.725 183.617 182.49 180.083 179.843C177.823 178.29 175.596 177.051 172.892 174.726Z" fill="#FB8700"/>
<path d="M166.924 178.583C162.648 176.115 154.737 170.728 154.929 171.488C152.384 171.8 165.36 180.203 173.274 184.676C176.303 186.388 183.188 189.925 187.241 192.138C190.413 193.869 203.214 199.302 203.271 199.217C203.329 199.133 179.916 187.864 176.307 185.302C174.027 183.767 170.011 180.364 166.924 178.583Z" fill="#FB8700"/>
<path d="M162.612 181.242C155.936 175.365 151.785 171.908 149.782 172.819C147.779 173.729 150.921 173.654 159.801 179.84C163.199 182.208 166.051 185.994 170.596 189.082C174.152 191.498 181.917 195.496 181.977 195.42C182.038 195.345 173.351 189.986 169.282 186.628C166.715 184.592 165.799 184.047 162.612 181.242Z" fill="#FB8700"/>
<path d="M149.583 183.864C145.119 181.43 143.994 175.157 144.871 174.668C146.677 171.407 144.634 177.165 148.653 181.946C149.713 184.218 154.113 183.271 156.078 185.793C157.616 187.766 161.147 190.742 161.036 190.886C160.925 191.03 156.714 187.144 154.257 185.448C152.804 184.299 151.714 185.026 149.583 183.864Z" fill="#FB8700"/>
<ellipse cx="52.3748" cy="121.772" rx="11.7101" ry="10.6919" fill="#F0E4E4"/>
<ellipse cx="52.3748" cy="121.772" rx="7.1562" ry="6.28934" fill="#383232"/>
<defs>
<filter id="filter0_i_102_417" x="205.164" y="71.7195" width="188.701" height="111.275" filterUnits="userSpaceOnUse" color-interpolation-filters="sRGB">
<feFlood flood-opacity="0" result="BackgroundImageFix"/>
<feBlend mode="normal" in="SourceGraphic" in2="BackgroundImageFix" result="shape"/>
<feColorMatrix in="SourceAlpha" type="matrix" values="0 0 0 0 0 0 0 0 0 0 0 0 0 0 0 0 0 0 127 0" result="hardAlpha"/>
<feOffset dx="-20" dy="1"/>
<feGaussianBlur stdDeviation="7"/>
<feComposite in2="hardAlpha" operator="arithmetic" k2="-1" k3="1"/>
<feColorMatrix type="matrix" values="0 0 0 0 1 0 0 0 0 0.360784 0 0 0 0 0 0 0 0 1 0"/>
<feBlend mode="normal" in2="shape" result="effect1_innerShadow_102_417"/>
</filter>
<filter id="filter1_i_102_417" x="0.843964" y="69.8001" width="226.923" height="110.996" filterUnits="userSpaceOnUse" color-interpolation-filters="sRGB">
<feFlood flood-opacity="0" result="BackgroundImageFix"/>
<feBlend mode="normal" in="SourceGraphic" in2="BackgroundImageFix" result="shape"/>
<feColorMatrix in="SourceAlpha" type="matrix" values="0 0 0 0 0 0 0 0 0 0 0 0 0 0 0 0 0 0 127 0" result="hardAlpha"/>
<feOffset dy="4"/>
<feGaussianBlur stdDeviation="2"/>
<feComposite in2="hardAlpha" operator="arithmetic" k2="-1" k3="1"/>
<feColorMatrix type="matrix" values="0 0 0 0 1 0 0 0 0 0.84 0 0 0 0 0 0 0 0 1 0"/>
<feBlend mode="normal" in2="shape" result="effect1_innerShadow_102_417"/>
</filter>
<filter id="filter2_i_102_417" x="0.843964" y="54.8001" width="229.923" height="121.996" filterUnits="userSpaceOnUse" color-interpolation-filters="sRGB">
<feFlood flood-opacity="0" result="BackgroundImageFix"/>
<feBlend mode="normal" in="SourceGraphic" in2="BackgroundImageFix" result="shape"/>
<feColorMatrix in="SourceAlpha" type="matrix" values="0 0 0 0 0 0 0 0 0 0 0 0 0 0 0 0 0 0 127 0" result="hardAlpha"/>
<feOffset dx="3" dy="-15"/>
<feGaussianBlur stdDeviation="10"/>
<feComposite in2="hardAlpha" operator="arithmetic" k2="-1" k3="1"/>
<feColorMatrix type="matrix" values="0 0 0 0 1 0 0 0 0 0.360784 0 0 0 0 0 0 0 0 1 0"/>
<feBlend mode="normal" in2="shape" result="effect1_innerShadow_102_417"/>
</filter>
<filter id="filter3_i_102_417" x="109.398" y="1.78998" width="121.565" height="108.599" filterUnits="userSpaceOnUse" color-interpolation-filters="sRGB">
<feFlood flood-opacity="0" result="BackgroundImageFix"/>
<feBlend mode="normal" in="SourceGraphic" in2="BackgroundImageFix" result="shape"/>
<feColorMatrix in="SourceAlpha" type="matrix" values="0 0 0 0 0 0 0 0 0 0 0 0 0 0 0 0 0 0 127 0" result="hardAlpha"/>
<feOffset dx="4" dy="10"/>
<feGaussianBlur stdDeviation="5"/>
<feComposite in2="hardAlpha" operator="arithmetic" k2="-1" k3="1"/>
<feColorMatrix type="matrix" values="0 0 0 0 1 0 0 0 0 0.36 0 0 0 0 0 0 0 0 1 0"/>
<feBlend mode="normal" in2="shape" result="effect1_innerShadow_102_417"/>
</filter>
<filter id="filter4_i_102_417" x="131.378" y="163.371" width="85.3733" height="39.3887" filterUnits="userSpaceOnUse" color-interpolation-filters="sRGB">
<feFlood flood-opacity="0" result="BackgroundImageFix"/>
<feBlend mode="normal" in="SourceGraphic" in2="BackgroundImageFix" result="shape"/>
<feColorMatrix in="SourceAlpha" type="matrix" values="0 0 0 0 0 0 0 0 0 0 0 0 0 0 0 0 0 0 127 0" result="hardAlpha"/>
<feOffset dx="4" dy="-2"/>
<feGaussianBlur stdDeviation="2.5"/>
<feComposite in2="hardAlpha" operator="arithmetic" k2="-1" k3="1"/>
<feColorMatrix type="matrix" values="0 0 0 0 1 0 0 0 0 0.447115 0 0 0 0 0 0 0 0 1 0"/>
<feBlend mode="normal" in2="shape" result="effect1_innerShadow_102_417"/>
</filter>
<linearGradient id="paint0_linear_102_417" x1="327.407" y1="127.019" x2="218.907" y2="127.019" gradientUnits="userSpaceOnUse">
<stop stop-color="#FF9800"/>
<stop offset="1" stop-color="#E6FF00"/>
</linearGradient>
<linearGradient id="paint1_linear_102_417" x1="-25.5024" y1="123.288" x2="275.638" y2="111.952" gradientUnits="userSpaceOnUse">
<stop offset="0.421875" stop-color="#FF9900"/>
<stop offset="0.703125" stop-color="#E6FF00" stop-opacity="0.5"/>
</linearGradient>
<linearGradient id="paint2_linear_102_417" x1="167.197" y1="183.696" x2="126.838" y2="166.605" gradientUnits="userSpaceOnUse">
<stop offset="0.015625" stop-color="#EDF721"/>
<stop offset="0.6875" stop-color="#E67215"/>
</linearGradient>
</defs>
</svg>
