<svg width="279" height="156" viewBox="0 0 279 156" fill="none" xmlns="http://www.w3.org/2000/svg">
<g filter="url(#filter0_i_106_557)">
<path d="M122.867 81.3869C121.425 82.9427 119.982 85.4709 119.982 87.9991C119.982 87.9991 119.441 90.3328 120.343 94.0278C120.523 95.9726 123.769 98.6952 123.769 98.6952C123.769 98.6952 113.667 112.954 103.574 116.781C98.3455 120.671 95.0866 122.687 87.527 126.894C79.9674 131.101 62.6717 138.339 53.6259 139.033C29.8468 138.11 36.0713 135.779 12.6205 127.86C1.54251 117.646 -6.24273 126.554 12.6205 116.781C20.0043 116.759 18.7103 118.347 21.957 112.314C30.7145 112.287 24.4616 106.183 31.1647 108.494C36.636 99.5395 34.9451 105.302 41.7891 101.619C48.6331 97.9349 48.5178 94.0278 48.5178 94.0278C48.5178 94.0278 50.9634 92.1574 46.0388 87.9991C41.1142 83.8408 44.2612 82.4563 38.6018 85.1939C32.5266 81.3808 36.3126 78.0884 31.1647 79.4643C26.5212 76.7584 24.8333 72.5756 20.5404 72.5888C16.0594 68.7734 12.9936 70.0614 9.56191 71.0609C6.24222 68.1456 3.17699 68.8394 0.0298638 66.2229C8.43166 61.5339 40.7899 50.2204 57.6597 56.7909C79.2317 62.8612 118.746 81.3996 122.867 81.3869Z" fill="url(#paint0_linear_106_557)"/>
</g>
<path d="M94.1983 78.8588C111.336 83.7444 121.279 85.0817 119.826 85.6475C121.252 89.1642 116.034 85.4691 95.5839 80.7299C88.2079 78.4236 83.6402 78.5438 73.2213 74.1884C64.5891 70.5799 48.8792 68.3425 44.9869 67.5864C50.5479 67.2746 59.3162 68.0435 67.7289 70.9885C71.0879 72.1644 86.2632 76.5966 94.1983 78.8588Z" fill="#FB8700"/>
<path d="M92.4922 87.9207C106.697 92.1074 120.452 91.6408 119.486 90.5965C121.245 88.1936 115.781 91.6435 98.1105 88.4683C91.5451 87.8644 83.8504 82.9689 74.8646 81.4593C67.8334 80.278 54.6164 77.2073 54.5846 77.3585C54.5528 77.5093 70.9496 81.0938 79.4386 83.3162C84.7332 84.5967 85.7115 85.9222 92.4922 87.9207Z" fill="#FB8700"/>
<path d="M106.271 98.4875C114.205 96.9317 120.908 94.4133 120.179 93.6917C120.179 91.3052 118.426 94.0471 108.976 96.6977C105.606 98.2554 100.823 97.2352 96.0437 98.6875C92.3036 99.824 85.0658 101.698 85.087 101.858C85.1082 102.019 94.0326 100.195 98.7424 99.6149C101.654 99.1482 102.51 99.2251 106.271 98.4875Z" fill="#FB8700"/>
<path d="M104.305 84.6904C113.153 85.6297 120.523 87.6102 119.87 88.1106C120.163 90.3328 117.753 88.6956 107.219 86.023C103.187 85.0001 98.4425 85.7117 93.1099 84.275C88.9372 83.1508 80.7943 79.5816 80.8117 79.4607C80.8291 79.3402 90.6098 82.5598 95.8325 83.328C99.0655 83.8853 100.081 84.242 104.305 84.6904Z" fill="#FB8700"/>
<path d="M95.641 114.642C113.852 106.474 121.3 93.7725 121.234 96.7734C119.802 99.2788 116.557 103.168 101.411 114.642C93.1166 116.976 85.6688 124.454 75.4465 129.228C67.4476 132.963 47.7086 133.371 47.6552 133.254C47.602 133.137 69.1217 130.531 78.692 125.338C84.6727 122.19 88.0208 118.981 95.641 114.642Z" fill="#FB8700"/>
<path d="M101.915 92.1231C111.906 91.0263 120.611 90.889 119.85 91.3728C119.126 94.0662 117.625 92.1752 105.413 92.4445C100.739 92.5475 95.6286 93.9462 89.43 94.0265C84.5798 94.0894 74.8351 93.2948 74.8298 93.2107C74.8246 93.1269 86.3123 93.3694 92.2533 92.8646C95.9475 92.6066 97.1454 92.6467 101.915 92.1231Z" fill="#FB8700"/>
<path d="M105.029 103.563C105.029 103.563 119.802 94.2224 120.555 94.9644C119.041 97.0769 111.413 101.843 101.411 106.863C95.5832 110.227 79.2329 116.198 79.2329 116.198C79.2329 116.198 61.0153 122.136 55.6125 120.671C65.355 120.29 73.1583 115.949 81.5771 113.475C86.8228 112.004 105.029 103.563 105.029 103.563Z" fill="#FB8700"/>
<path d="M111.869 81.1925C116.737 82.1649 120.163 85.8599 120.678 84.4201C121.194 82.9804 105.931 77.8819 96.5424 74.9693C88.6624 71.0078 73.1148 64.3323 66.2631 62.3565C60.8539 60.0228 48.2324 56.4676 43.3226 56.4676C38.4127 56.4676 54.0022 59.4393 54.0022 59.4393C54.0022 59.4393 80.5075 68.7742 85.5226 71.5406C91.7376 74.969 107.181 79.6367 111.869 81.1925Z" fill="#FB8700"/>
<path d="M81.0887 129.781C73.6961 132.892 55.4884 137.804 56.6943 138.368C56.6943 138.368 79.7021 133.028 86.1373 128.225C92.4598 125.254 103.89 117.638 108.495 114.028C113.101 110.419 120.215 103.916 122.267 99.4354C124.319 94.9552 118.541 103.328 115.708 105.471C109.938 111.889 101.351 117.62 97.4967 120.057C92.2678 123.363 87.9404 125.697 81.0887 129.781Z" fill="#FB8700"/>
<g filter="url(#filter1_i_106_557)">
<g filter="url(#filter2_i_106_557)">
<path d="M262.413 81.0447C269.312 87.1358 278.501 89.0068 278.401 98.6228C278.294 109.001 267.615 110.141 259.393 115.532C250.723 121.218 245.042 122.871 235.411 126.316C220.717 131.572 212.088 135.169 196.607 135.059C182.921 134.962 174.941 133.209 162.219 127.766C153.215 123.913 148.45 120.799 140.537 114.774C136.126 111.414 135.948 105.738 131.365 102.658C124.334 101.287 122.172 100.506 118.57 96.4166C117.314 91.7475 117.281 87.2745 119.111 84.2124C122.739 78.1418 128.622 78.6709 136.577 72.8385C144.638 66.9285 148.912 62.8415 157.982 58.9936C166.943 54.8665 179.927 53.1344 187.5 53.3394C197.812 53.6186 203.725 55.3069 213.688 57.8905C223.509 60.1888 229.272 60.9328 238.518 65.1791C248.6 69.8092 253.933 73.5586 262.413 81.0447Z" fill="url(#paint1_linear_106_557)"/>
</g>
<path d="M194.984 76.3524C193.447 75.8726 191.845 74.7517 191.971 73.0144C192.098 71.2771 193.787 71.1977 195.398 70.6667L194.984 76.3524Z" fill="#D96F28"/>
<path d="M194.636 81.1361C192.575 80.6517 190.407 79.5946 190.519 78.0543C190.631 76.5141 192.877 76.507 195.003 76.0953L194.636 81.1361Z" fill="#D96F28"/>
<path d="M199.268 118.403C197.679 118.211 195.924 117.399 195.776 115.663C195.628 113.928 197.281 113.541 198.784 112.724L199.268 118.403Z" fill="#D97329"/>
<path d="M199.676 123.182C197.569 123.08 195.266 122.434 195.135 120.896C195.004 119.357 197.216 118.94 199.247 118.147L199.676 123.182Z" fill="#D97329"/>
<path d="M180.913 102.207C179.267 102.02 177.452 101.214 177.304 99.4783C177.156 97.743 178.869 97.3504 180.428 96.5275L180.913 102.207Z" fill="#EC9718"/>
<path d="M181.32 106.985C179.648 106.841 177.811 106.148 177.68 104.61C177.548 103.071 179.295 102.701 180.891 101.95L181.32 106.985Z" fill="#EC9718"/>
<path d="M168.641 113.554C167.003 113.303 165.216 112.427 165.126 110.687C165.037 108.947 166.761 108.621 168.348 107.86L168.641 113.554Z" fill="#EC9718"/>
<path d="M168.888 118.345C167.222 118.136 165.409 117.372 165.33 115.83C165.25 114.287 167.008 113.985 168.628 113.297L168.888 118.345Z" fill="#EC9718"/>
<path d="M164.593 92.1313C162.964 91.821 161.206 90.8798 161.17 89.1376C161.135 87.3954 162.869 87.1328 164.478 86.4295L164.593 92.1313Z" fill="#D97429"/>
<path d="M164.69 96.929C163.032 96.6589 161.244 95.8298 161.213 94.2852C161.182 92.7405 162.948 92.5024 164.588 91.8739L164.69 96.929Z" fill="#D97429"/>
<path d="M177.711 71.3502C176.114 70.8823 174.442 69.7736 174.553 68.035C174.664 66.2965 176.413 66.2041 178.074 65.6605L177.711 71.3502Z" fill="#EC9718"/>
<path d="M164.729 86.5192C163.132 86.0513 161.46 84.9426 161.571 83.2041C161.682 81.4656 163.431 81.3731 165.092 80.8295L164.729 86.5192Z" fill="#DA822B"/>
<path d="M206.557 94.9325C204.496 94.4481 202.328 93.391 202.44 91.8507C202.552 90.3105 204.798 90.3034 206.924 89.8917L206.557 94.9325Z" fill="#D97129"/>
<path d="M224.639 83.2744C222.578 82.79 222.521 81.8919 222.68 80.348C222.868 78.5082 224.284 78.8015 226.262 78.996C228.239 79.1905 227.884 81.5241 227.884 81.5241C227.884 81.5241 227.843 82.2128 227.343 82.691C226.858 83.1557 226.699 83.7589 224.639 83.2744Z" fill="#D97129"/>
<path fill-rule="evenodd" clip-rule="evenodd" d="M229.394 117.381C226.955 116.105 224.672 112.094 223.771 107.031C222.601 100.461 224.202 94.6062 227.347 93.9551C227.593 93.9042 227.841 93.8866 228.089 93.9005C225.412 95.2592 224.194 101.116 225.36 107.67C226.098 111.812 227.624 115.316 229.394 117.381Z" fill="#DA7528"/>
<path fill-rule="evenodd" clip-rule="evenodd" d="M217.99 119.719C214.955 117.783 212.485 112.433 211.969 105.949C211.3 97.5334 214.177 90.3953 218.394 90.0053C218.724 89.9748 219.052 89.9864 219.377 90.0378C215.68 91.3805 213.306 98.5742 213.973 106.967C214.395 112.272 215.938 116.882 217.99 119.719Z" fill="#D6712D"/>
</g>
<g filter="url(#filter3_i_106_557)">
<path d="M191.058 38.249C193.95 46.4773 201.514 54.9098 201.514 54.9098L199.351 54.5209L197.187 54.1461C197.187 54.1461 195.925 54.0091 193.581 53.743C190.155 53.354 187.631 53.354 184.205 53.354L184.205 53.354C180.969 53.6809 177.434 53.8956 175.819 54.1461C173.667 54.4801 171.878 54.8551 169.91 55.2967C167.438 55.9709 165.262 56.388 162.768 57.2033C160.684 58.1044 159.158 58.6333 157.088 59.5645C155.423 60.3139 154.467 60.6911 152.836 61.5096C150.487 62.8833 149.645 63.3113 147.422 64.8281C145.4 66.208 144.129 67.2255 142.193 68.7176C140.367 70.1251 139.213 71.0838 137.325 72.4126C135.706 73.5518 135.117 74.2135 133.358 75.1353C131.961 75.8672 131.555 76.1076 130.112 76.6911C128.82 71.5176 113.596 61.6127 119.67 53.6497C124.64 47.1345 129.889 51.9471 136.024 47.4708C143.633 41.9193 138.779 44.2004 142.421 40.5394C151.531 38.1912 146.674 38.5944 150.475 34.4025C156.481 32.4291 156.017 33.0946 155.848 28.9152C162.103 27.3993 157.791 23.4149 159.772 23.3216C162.432 22.1495 161.105 16.1053 163.725 18.4246C165.961 15.7022 163.457 11.8071 166.972 13.9098C167.961 11.595 164.764 8.43051 168.007 8.27782C170.075 5.87521 167.908 5.8398 170.254 1.36744C174.28 2.74811 183.315 11.9189 185.522 17.3982C187.729 22.8775 188.561 31.1435 191.058 38.249Z" fill="#FFE91F"/>
</g>
<path d="M182.294 39.0093C185.279 45.8966 184.532 53.275 183.718 52.926C181.509 54.5426 184.66 50.794 182.582 41.9073C182.274 38.5152 178.543 35.1964 177.571 30.661C176.81 27.112 174.696 20.5743 174.819 20.5337C174.941 20.4931 177.382 28.6391 178.941 32.7989C179.829 35.41 180.869 35.7216 182.294 39.0093Z" fill="#D4922C"/>
<path d="M177.296 41.607C179.419 47.6595 177.896 53.9927 177.15 53.6605C174.848 54.97 178.29 51.8584 177.258 44.1167C177.331 41.1802 174.1 38.1761 173.659 34.2284C173.313 31.1393 171.991 25.4216 172.113 25.3912C172.235 25.361 173.698 32.4779 174.745 36.1241C175.315 38.4094 176.282 38.7179 177.296 41.607Z" fill="#D4922C"/>
<path d="M146.273 56.7432C146.574 60.2105 150.366 62.4758 150.934 62.0566C153.562 61.8018 149.199 61.669 147.25 57.8468C146.08 56.5659 147.951 54.0527 146.879 52.1345C146.039 50.6335 145.12 47.6066 144.995 47.6376C144.871 47.6685 146.185 51.3694 146.582 53.3739C146.911 54.5987 146.129 55.0881 146.273 56.7432Z" fill="#D4922C"/>
<path d="M140.895 60.9123C140.938 64.1274 143.669 66.6423 144.118 66.3232C147.533 65.2965 143.164 65.6942 141.901 61.9637C141.09 60.6539 142.299 58.6379 141.595 56.7548C141.043 55.2813 140.513 52.3989 140.417 52.413C140.322 52.427 141.114 55.973 141.306 57.8574C141.488 59.0188 140.874 59.3775 140.895 60.9123Z" fill="#D4922C"/>
<path d="M135.196 65.5213C134.954 68.3217 137.891 70.5568 138.441 70.2863C142.492 69.4487 137.393 69.7229 136.267 66.4535C135.445 65.2995 137.03 63.5639 136.384 61.9125C135.878 60.6203 135.524 58.1016 135.412 58.1122C135.3 58.1228 135.897 61.2238 135.949 62.8679C136.055 63.8822 135.311 64.1845 135.196 65.5213Z" fill="#D4922C"/>
<path d="M169.77 45.1929C169.919 50.5986 171.222 55.1292 171.785 54.6302C174.322 54.9116 172.552 53.3041 170.834 46.9314C170.176 44.4922 171.301 41.5442 170.349 38.3217C169.603 35.8002 166.784 30.9355 166.663 30.9512C166.542 30.9668 168.869 36.8534 169.169 40.0355C169.435 42.0019 169.699 42.6125 169.77 45.1929Z" fill="#D4922C"/>
<path d="M165.149 46.9226C167.041 51.6835 169.328 55.5919 166.848 55.8894C164.634 57.0817 165.649 55.0216 164.829 48.8329C164.515 46.4643 162.381 44.3183 162.043 41.1575C161.779 38.6843 162.531 33.3975 162.648 33.3658C162.764 33.3342 162.845 39.327 163.765 42.2088C164.258 44.02 164.246 44.65 165.149 46.9226Z" fill="#D4922C"/>
<path d="M158.816 50.999C159.408 54.9769 160.991 58.1323 161.467 57.6777C164.83 56.3984 162.063 56.5801 159.942 52.1243C159.131 50.4189 159.919 48.0667 158.77 45.8264C157.87 44.0733 154.863 40.9004 154.752 40.9304C154.642 40.9603 157.282 44.9639 157.827 47.2734C158.238 48.6883 158.533 49.1001 158.816 50.999Z" fill="#D4922C"/>
<path d="M154.137 52.9993C154.812 56.709 154.813 59.8391 157.083 59.2542C158.762 59.2355 156.813 58.3515 155.014 54.1073C154.325 52.4828 154.741 50.3587 153.777 48.2196C153.022 46.5458 150.67 43.4321 150.592 43.4531C150.515 43.474 152.658 47.3324 153.194 49.4984C153.577 50.8301 153.814 51.2284 154.137 52.9993Z" fill="#D4922C"/>
<path d="M186.48 38.1547C189.645 44.4331 187.68 52.8897 188.584 53.1118C189.281 53.2833 190.072 43.9591 187.85 39.1194C186.561 35.2243 185.802 33.3137 183.991 28.8592C181.809 25.5586 182.085 12.6933 181.677 16.0054C181.269 19.3174 181.669 20.854 182.002 24.0196C183.306 29.4256 185.075 34.5125 186.48 38.1547Z" fill="#D4922C"/>
<path d="M207.262 139.118C208.991 137.103 208.71 133.672 208.71 133.672C208.71 133.672 202.059 134.353 198.03 134.353C193.859 134.353 191.861 134.411 187.711 134.013C183.546 133.613 181.1 133.07 177.031 132.141C173.181 131.261 167.256 129.589 167.256 129.589C167.256 129.589 169.197 132.604 170.876 134.183C170.876 134.183 178.253 138.066 180.418 139.118C182.584 140.17 188.211 142.613 190.608 143.032C194.59 143.372 198.211 143.202 202.193 142.521C204.65 141.533 205.595 141.059 207.262 139.118Z" fill="#EDF621"/>
<path d="M197.007 138.145C204.039 138.145 209.099 137.43 208.366 136.619C208.366 135.65 206.813 137.194 198.81 137.173C196.032 137.701 191.465 135.563 187.431 135.65C184.274 135.718 178.052 135.056 178.091 135.202C178.129 135.347 185.772 135.96 189.853 136.619C192.363 136.931 193.878 138.145 197.007 138.145Z" fill="#FB8700"/>
<path d="M197.922 139.584C202.268 139.395 205.301 140.285 206.563 139.584C206.278 140.765 205.08 140.782 199.572 140.111C197.464 139.854 195.485 140.499 192.679 140.111C190.484 139.807 185.813 138.579 185.795 138.508C185.287 138.508 191.691 139.689 194.302 139.701C195.936 139.756 195.847 139.673 197.922 139.584Z" fill="#FB8700"/>
<g filter="url(#filter4_i_106_557)">
<path d="M176.619 139.863C179.604 137.818 185.946 133.248 185.946 133.248C185.946 133.248 176.516 132.249 170.867 130.37C166.651 128.969 160.258 126.334 160.258 126.334C160.258 126.334 157.633 128.222 155.85 129.241C151.303 131.841 148.719 131.678 144.492 134.578C140.265 137.478 136.911 139.563 132.884 143.038C131.18 146.098 126.959 150.322 128.74 153.33C135.116 155.012 140.362 155.397 145.192 154.205C154.672 151.866 156.345 151.169 161.075 149.265C165.804 147.361 172.357 142.782 176.619 139.863Z" fill="url(#paint2_linear_106_557)"/>
</g>
<path d="M156.543 133.48C160.555 129.759 163.872 128.876 165.794 129.788C167.716 130.7 166.219 128.983 160.465 132.15C158.262 133.362 150.583 139.711 147.617 141.246C145.296 142.447 136.896 147.444 136.827 147.337C136.758 147.23 148.946 139.412 151.449 137.389C153.05 136.203 154.627 135.257 156.543 133.48Z" fill="#FB8700"/>
<path d="M160.77 136.427C163.798 134.542 169.402 130.426 169.266 131.007C171.068 131.245 161.877 137.664 156.272 141.082C154.127 142.389 149.25 145.092 146.379 146.782C144.133 148.105 135.066 152.255 135.025 152.19C134.985 152.126 151.568 143.517 154.124 141.56C155.739 140.387 158.583 137.787 160.77 136.427Z" fill="#FB8700"/>
<path d="M163.824 138.458C168.552 133.968 171.492 131.327 172.911 132.023C174.33 132.719 172.104 132.661 165.815 137.387C163.408 139.196 161.388 142.088 158.169 144.447C155.65 146.293 150.15 149.347 150.107 149.289C150.065 149.232 156.217 145.138 159.099 142.573C160.918 141.018 161.566 140.601 163.824 138.458Z" fill="#FB8700"/>
<path d="M173.052 140.461C176.214 138.602 177.01 133.81 176.39 133.436C175.111 130.945 176.558 135.343 173.71 138.996C172.96 140.732 169.843 140.009 168.452 141.935C167.363 143.442 164.861 145.716 164.94 145.826C165.018 145.936 168.001 142.967 169.742 141.671C170.771 140.794 171.543 141.349 173.052 140.461Z" fill="#FB8700"/>
<ellipse cx="8.29417" cy="8.16796" rx="8.29417" ry="8.16796" transform="matrix(-1 0 0 1 250.198 84.859)" fill="#F0E4E4"/>
<ellipse cx="5.06866" cy="4.80468" rx="5.06866" ry="4.80468" transform="matrix(-1 0 0 1 246.972 88.2223)" fill="#383232"/>
<defs>
<filter id="filter0_i_106_557" x="-13.9701" y="54.7894" width="137.739" height="85.2434" filterUnits="userSpaceOnUse" color-interpolation-filters="sRGB">
<feFlood flood-opacity="0" result="BackgroundImageFix"/>
<feBlend mode="normal" in="SourceGraphic" in2="BackgroundImageFix" result="shape"/>
<feColorMatrix in="SourceAlpha" type="matrix" values="0 0 0 0 0 0 0 0 0 0 0 0 0 0 0 0 0 0 127 0" result="hardAlpha"/>
<feOffset dx="-20" dy="1"/>
<feGaussianBlur stdDeviation="7"/>
<feComposite in2="hardAlpha" operator="arithmetic" k2="-1" k3="1"/>
<feColorMatrix type="matrix" values="0 0 0 0 1 0 0 0 0 0.360784 0 0 0 0 0 0 0 0 1 0"/>
<feBlend mode="normal" in2="shape" result="effect1_innerShadow_106_557"/>
</filter>
<filter id="filter1_i_106_557" x="117.675" y="53.3232" width="160.727" height="85.7387" filterUnits="userSpaceOnUse" color-interpolation-filters="sRGB">
<feFlood flood-opacity="0" result="BackgroundImageFix"/>
<feBlend mode="normal" in="SourceGraphic" in2="BackgroundImageFix" result="shape"/>
<feColorMatrix in="SourceAlpha" type="matrix" values="0 0 0 0 0 0 0 0 0 0 0 0 0 0 0 0 0 0 127 0" result="hardAlpha"/>
<feOffset dy="4"/>
<feGaussianBlur stdDeviation="2"/>
<feComposite in2="hardAlpha" operator="arithmetic" k2="-1" k3="1"/>
<feColorMatrix type="matrix" values="0 0 0 0 1 0 0 0 0 0.84 0 0 0 0 0 0 0 0 1 0"/>
<feBlend mode="normal" in2="shape" result="effect1_innerShadow_106_557"/>
</filter>
<filter id="filter2_i_106_557" x="117.675" y="38.3232" width="163.727" height="96.7387" filterUnits="userSpaceOnUse" color-interpolation-filters="sRGB">
<feFlood flood-opacity="0" result="BackgroundImageFix"/>
<feBlend mode="normal" in="SourceGraphic" in2="BackgroundImageFix" result="shape"/>
<feColorMatrix in="SourceAlpha" type="matrix" values="0 0 0 0 0 0 0 0 0 0 0 0 0 0 0 0 0 0 127 0" result="hardAlpha"/>
<feOffset dx="3" dy="-15"/>
<feGaussianBlur stdDeviation="10"/>
<feComposite in2="hardAlpha" operator="arithmetic" k2="-1" k3="1"/>
<feColorMatrix type="matrix" values="0 0 0 0 1 0 0 0 0 0.360784 0 0 0 0 0 0 0 0 1 0"/>
<feBlend mode="normal" in2="shape" result="effect1_innerShadow_106_557"/>
</filter>
<filter id="filter3_i_106_557" x="118.245" y="1.36743" width="87.2699" height="85.3236" filterUnits="userSpaceOnUse" color-interpolation-filters="sRGB">
<feFlood flood-opacity="0" result="BackgroundImageFix"/>
<feBlend mode="normal" in="SourceGraphic" in2="BackgroundImageFix" result="shape"/>
<feColorMatrix in="SourceAlpha" type="matrix" values="0 0 0 0 0 0 0 0 0 0 0 0 0 0 0 0 0 0 127 0" result="hardAlpha"/>
<feOffset dx="4" dy="10"/>
<feGaussianBlur stdDeviation="5"/>
<feComposite in2="hardAlpha" operator="arithmetic" k2="-1" k3="1"/>
<feColorMatrix type="matrix" values="0 0 0 0 1 0 0 0 0 0.36 0 0 0 0 0 0 0 0 1 0"/>
<feBlend mode="normal" in2="shape" result="effect1_innerShadow_106_557"/>
</filter>
<filter id="filter4_i_106_557" x="128.31" y="124.334" width="61.6357" height="30.5627" filterUnits="userSpaceOnUse" color-interpolation-filters="sRGB">
<feFlood flood-opacity="0" result="BackgroundImageFix"/>
<feBlend mode="normal" in="SourceGraphic" in2="BackgroundImageFix" result="shape"/>
<feColorMatrix in="SourceAlpha" type="matrix" values="0 0 0 0 0 0 0 0 0 0 0 0 0 0 0 0 0 0 127 0" result="hardAlpha"/>
<feOffset dx="4" dy="-2"/>
<feGaussianBlur stdDeviation="2.5"/>
<feComposite in2="hardAlpha" operator="arithmetic" k2="-1" k3="1"/>
<feColorMatrix type="matrix" values="0 0 0 0 1 0 0 0 0 0.447115 0 0 0 0 0 0 0 0 1 0"/>
<feBlend mode="normal" in2="shape" result="effect1_innerShadow_106_557"/>
</filter>
<linearGradient id="paint0_linear_106_557" x1="47.1012" y1="97.0349" x2="123.951" y2="97.0349" gradientUnits="userSpaceOnUse">
<stop stop-color="#FF9800"/>
<stop offset="1" stop-color="#E6FF00"/>
</linearGradient>
<linearGradient id="paint1_linear_106_557" x1="297.063" y1="94.185" x2="83.7265" y2="86.7388" gradientUnits="userSpaceOnUse">
<stop offset="0.421875" stop-color="#FF9900"/>
<stop offset="0.703125" stop-color="#E6FF00" stop-opacity="0.5"/>
</linearGradient>
<linearGradient id="paint2_linear_106_557" x1="160.576" y1="140.333" x2="189.785" y2="128.865" gradientUnits="userSpaceOnUse">
<stop offset="0.015625" stop-color="#EDF721"/>
<stop offset="0.6875" stop-color="#E67215"/>
</linearGradient>
</defs>
</svg>
